<?xml version="1.0" encoding="utf-8" standalone="no"?>
<!DOCTYPE svg PUBLIC "-//W3C//DTD SVG 1.1//EN"
  "http://www.w3.org/Graphics/SVG/1.1/DTD/svg11.dtd">
<svg xmlns:xlink="http://www.w3.org/1999/xlink" width="853.241656pt" height="310.566125pt" viewBox="0 0 853.241656 310.566125" xmlns="http://www.w3.org/2000/svg" version="1.1">
 <metadata>
  <rdf:RDF xmlns:dc="http://purl.org/dc/elements/1.1/" xmlns:cc="http://creativecommons.org/ns#" xmlns:rdf="http://www.w3.org/1999/02/22-rdf-syntax-ns#">
   <cc:Work>
    <dc:type rdf:resource="http://purl.org/dc/dcmitype/StillImage"/>
    <dc:date>2026-04-18T01:13:55.196922</dc:date>
    <dc:format>image/svg+xml</dc:format>
    <dc:creator>
     <cc:Agent>
      <dc:title>Matplotlib v3.10.8, https://matplotlib.org/</dc:title>
     </cc:Agent>
    </dc:creator>
   </cc:Work>
  </rdf:RDF>
 </metadata>
 <defs>
  <style type="text/css">*{stroke-linejoin: round; stroke-linecap: butt}</style>
 </defs>
 <g id="figure_1">
  <g id="patch_1">
   <path d="M 0 310.566125 
L 853.241656 310.566125 
L 853.241656 0 
L 0 0 
z
" style="fill: #ffffff"/>
  </g>
  <g id="axes_1">
   <g id="patch_2">
    <path d="M 7.2 286.688 
L 256.14787 286.688 
L 256.14787 67.488 
L 7.2 67.488 
z
" style="fill: #ffffff"/>
   </g>
   <g id="line2d_1">
    <path d="M 131.673935 286.688 
L 131.673935 67.488 
" clip-path="url(#p85f9b73d7c)" style="fill: none; stroke: #4c566a; stroke-linecap: square"/>
   </g>
   <g id="matplotlib.axis_1">
    <g id="xtick_1">
     <g id="line2d_2">
      <path d="M 45.083372 286.688 
L 45.083372 67.488 
" clip-path="url(#p85f9b73d7c)" style="fill: none; stroke: #e7ecf2; stroke-linecap: square"/>
     </g>
     <g id="line2d_3">
      <defs>
       <path id="m7e66cb3551" d="M 0 0 
L 0 3.5 
" style="stroke: #000000; stroke-width: 0.8"/>
      </defs>
      <g>
       <use xlink:href="#m7e66cb3551" x="45.083372" y="286.688" style="stroke: #000000; stroke-width: 0.8"/>
      </g>
     </g>
     <g id="text_1">
      <!-- -0.40 -->
      <g transform="translate(32.146653 301.286438) scale(0.1 -0.1)">
       <defs>
        <path id="DejaVuSans-2d" d="M 313 2009 
L 1997 2009 
L 1997 1497 
L 313 1497 
L 313 2009 
z
" transform="scale(0.015625)"/>
        <path id="DejaVuSans-30" d="M 2034 4250 
Q 1547 4250 1301 3770 
Q 1056 3291 1056 2328 
Q 1056 1369 1301 889 
Q 1547 409 2034 409 
Q 2525 409 2770 889 
Q 3016 1369 3016 2328 
Q 3016 3291 2770 3770 
Q 2525 4250 2034 4250 
z
M 2034 4750 
Q 2819 4750 3233 4129 
Q 3647 3509 3647 2328 
Q 3647 1150 3233 529 
Q 2819 -91 2034 -91 
Q 1250 -91 836 529 
Q 422 1150 422 2328 
Q 422 3509 836 4129 
Q 1250 4750 2034 4750 
z
" transform="scale(0.015625)"/>
        <path id="DejaVuSans-2e" d="M 684 794 
L 1344 794 
L 1344 0 
L 684 0 
L 684 794 
z
" transform="scale(0.015625)"/>
        <path id="DejaVuSans-34" d="M 2419 4116 
L 825 1625 
L 2419 1625 
L 2419 4116 
z
M 2253 4666 
L 3047 4666 
L 3047 1625 
L 3713 1625 
L 3713 1100 
L 3047 1100 
L 3047 0 
L 2419 0 
L 2419 1100 
L 313 1100 
L 313 1709 
L 2253 4666 
z
" transform="scale(0.015625)"/>
       </defs>
       <use xlink:href="#DejaVuSans-2d"/>
       <use xlink:href="#DejaVuSans-30" transform="translate(36.083984 0)"/>
       <use xlink:href="#DejaVuSans-2e" transform="translate(99.707031 0)"/>
       <use xlink:href="#DejaVuSans-34" transform="translate(131.494141 0)"/>
       <use xlink:href="#DejaVuSans-30" transform="translate(195.117188 0)"/>
      </g>
     </g>
    </g>
    <g id="xtick_2">
     <g id="line2d_4">
      <path d="M 88.378653 286.688 
L 88.378653 67.488 
" clip-path="url(#p85f9b73d7c)" style="fill: none; stroke: #e7ecf2; stroke-linecap: square"/>
     </g>
     <g id="line2d_5">
      <g>
       <use xlink:href="#m7e66cb3551" x="88.378653" y="286.688" style="stroke: #000000; stroke-width: 0.8"/>
      </g>
     </g>
     <g id="text_2">
      <!-- -0.20 -->
      <g transform="translate(75.441934 301.286438) scale(0.1 -0.1)">
       <defs>
        <path id="DejaVuSans-32" d="M 1228 531 
L 3431 531 
L 3431 0 
L 469 0 
L 469 531 
Q 828 903 1448 1529 
Q 2069 2156 2228 2338 
Q 2531 2678 2651 2914 
Q 2772 3150 2772 3378 
Q 2772 3750 2511 3984 
Q 2250 4219 1831 4219 
Q 1534 4219 1204 4116 
Q 875 4013 500 3803 
L 500 4441 
Q 881 4594 1212 4672 
Q 1544 4750 1819 4750 
Q 2544 4750 2975 4387 
Q 3406 4025 3406 3419 
Q 3406 3131 3298 2873 
Q 3191 2616 2906 2266 
Q 2828 2175 2409 1742 
Q 1991 1309 1228 531 
z
" transform="scale(0.015625)"/>
       </defs>
       <use xlink:href="#DejaVuSans-2d"/>
       <use xlink:href="#DejaVuSans-30" transform="translate(36.083984 0)"/>
       <use xlink:href="#DejaVuSans-2e" transform="translate(99.707031 0)"/>
       <use xlink:href="#DejaVuSans-32" transform="translate(131.494141 0)"/>
       <use xlink:href="#DejaVuSans-30" transform="translate(195.117188 0)"/>
      </g>
     </g>
    </g>
    <g id="xtick_3">
     <g id="line2d_6">
      <path d="M 131.673935 286.688 
L 131.673935 67.488 
" clip-path="url(#p85f9b73d7c)" style="fill: none; stroke: #e7ecf2; stroke-linecap: square"/>
     </g>
     <g id="line2d_7">
      <g>
       <use xlink:href="#m7e66cb3551" x="131.673935" y="286.688" style="stroke: #000000; stroke-width: 0.8"/>
      </g>
     </g>
     <g id="text_3">
      <!-- 0.00 -->
      <g transform="translate(120.541122 301.286438) scale(0.1 -0.1)">
       <use xlink:href="#DejaVuSans-30"/>
       <use xlink:href="#DejaVuSans-2e" transform="translate(63.623047 0)"/>
       <use xlink:href="#DejaVuSans-30" transform="translate(95.410156 0)"/>
       <use xlink:href="#DejaVuSans-30" transform="translate(159.033203 0)"/>
      </g>
     </g>
    </g>
    <g id="xtick_4">
     <g id="line2d_8">
      <path d="M 174.969217 286.688 
L 174.969217 67.488 
" clip-path="url(#p85f9b73d7c)" style="fill: none; stroke: #e7ecf2; stroke-linecap: square"/>
     </g>
     <g id="line2d_9">
      <g>
       <use xlink:href="#m7e66cb3551" x="174.969217" y="286.688" style="stroke: #000000; stroke-width: 0.8"/>
      </g>
     </g>
     <g id="text_4">
      <!-- 0.20 -->
      <g transform="translate(163.836404 301.286438) scale(0.1 -0.1)">
       <use xlink:href="#DejaVuSans-30"/>
       <use xlink:href="#DejaVuSans-2e" transform="translate(63.623047 0)"/>
       <use xlink:href="#DejaVuSans-32" transform="translate(95.410156 0)"/>
       <use xlink:href="#DejaVuSans-30" transform="translate(159.033203 0)"/>
      </g>
     </g>
    </g>
    <g id="xtick_5">
     <g id="line2d_10">
      <path d="M 218.264498 286.688 
L 218.264498 67.488 
" clip-path="url(#p85f9b73d7c)" style="fill: none; stroke: #e7ecf2; stroke-linecap: square"/>
     </g>
     <g id="line2d_11">
      <g>
       <use xlink:href="#m7e66cb3551" x="218.264498" y="286.688" style="stroke: #000000; stroke-width: 0.8"/>
      </g>
     </g>
     <g id="text_5">
      <!-- 0.40 -->
      <g transform="translate(207.131686 301.286438) scale(0.1 -0.1)">
       <use xlink:href="#DejaVuSans-30"/>
       <use xlink:href="#DejaVuSans-2e" transform="translate(63.623047 0)"/>
       <use xlink:href="#DejaVuSans-34" transform="translate(95.410156 0)"/>
       <use xlink:href="#DejaVuSans-30" transform="translate(159.033203 0)"/>
      </g>
     </g>
    </g>
   </g>
   <g id="matplotlib.axis_2"/>
   <g id="patch_3">
    <path d="M 131.673935 276.724364 
L 88.378653 276.724364 
L 88.378653 77.451636 
L 131.673935 77.451636 
z
" clip-path="url(#p85f9b73d7c)" style="fill: #c05640; opacity: 0.18"/>
   </g>
   <g id="patch_4">
    <path d="M 7.2 286.688 
L 7.2 67.488 
" style="fill: none; stroke: #d0d7de; stroke-width: 0.8; stroke-linejoin: miter; stroke-linecap: square"/>
   </g>
   <g id="patch_5">
    <path d="M 7.2 286.688 
L 256.14787 286.688 
" style="fill: none; stroke: #d0d7de; stroke-width: 0.8; stroke-linejoin: miter; stroke-linecap: square"/>
   </g>
   <g id="LineCollection_1">
    <path d="M 23.435731 177.088 
L 131.673935 177.088 
" clip-path="url(#p85f9b73d7c)" style="fill: none; stroke: #c05640; stroke-width: 2"/>
   </g>
   <g id="line2d_12">
    <defs>
     <path id="m27b07edb45" d="M 0 5 
L 0 -5 
" style="stroke: #c05640"/>
    </defs>
    <g clip-path="url(#p85f9b73d7c)">
     <use xlink:href="#m27b07edb45" x="23.435731" y="177.088" style="fill: #c05640; stroke: #c05640"/>
    </g>
   </g>
   <g id="line2d_13">
    <g clip-path="url(#p85f9b73d7c)">
     <use xlink:href="#m27b07edb45" x="131.673935" y="177.088" style="fill: #c05640; stroke: #c05640"/>
    </g>
   </g>
   <g id="text_6">
    <!-- p=0.500 -->
    <g transform="translate(12.178957 92.622438) scale(0.1 -0.1)">
     <defs>
      <path id="DejaVuSans-70" d="M 1159 525 
L 1159 -1331 
L 581 -1331 
L 581 3500 
L 1159 3500 
L 1159 2969 
Q 1341 3281 1617 3432 
Q 1894 3584 2278 3584 
Q 2916 3584 3314 3078 
Q 3713 2572 3713 1747 
Q 3713 922 3314 415 
Q 2916 -91 2278 -91 
Q 1894 -91 1617 61 
Q 1341 213 1159 525 
z
M 3116 1747 
Q 3116 2381 2855 2742 
Q 2594 3103 2138 3103 
Q 1681 3103 1420 2742 
Q 1159 2381 1159 1747 
Q 1159 1113 1420 752 
Q 1681 391 2138 391 
Q 2594 391 2855 752 
Q 3116 1113 3116 1747 
z
" transform="scale(0.015625)"/>
      <path id="DejaVuSans-3d" d="M 678 2906 
L 4684 2906 
L 4684 2381 
L 678 2381 
L 678 2906 
z
M 678 1631 
L 4684 1631 
L 4684 1100 
L 678 1100 
L 678 1631 
z
" transform="scale(0.015625)"/>
      <path id="DejaVuSans-35" d="M 691 4666 
L 3169 4666 
L 3169 4134 
L 1269 4134 
L 1269 2991 
Q 1406 3038 1543 3061 
Q 1681 3084 1819 3084 
Q 2600 3084 3056 2656 
Q 3513 2228 3513 1497 
Q 3513 744 3044 326 
Q 2575 -91 1722 -91 
Q 1428 -91 1123 -41 
Q 819 9 494 109 
L 494 744 
Q 775 591 1075 516 
Q 1375 441 1709 441 
Q 2250 441 2565 725 
Q 2881 1009 2881 1497 
Q 2881 1984 2565 2268 
Q 2250 2553 1709 2553 
Q 1456 2553 1204 2497 
Q 953 2441 691 2322 
L 691 4666 
z
" transform="scale(0.015625)"/>
     </defs>
     <use xlink:href="#DejaVuSans-70"/>
     <use xlink:href="#DejaVuSans-3d" transform="translate(63.476562 0)"/>
     <use xlink:href="#DejaVuSans-30" transform="translate(147.265625 0)"/>
     <use xlink:href="#DejaVuSans-2e" transform="translate(210.888672 0)"/>
     <use xlink:href="#DejaVuSans-35" transform="translate(242.675781 0)"/>
     <use xlink:href="#DejaVuSans-30" transform="translate(306.298828 0)"/>
     <use xlink:href="#DejaVuSans-30" transform="translate(369.921875 0)"/>
    </g>
   </g>
   <g id="text_7">
    <!-- Solve rate -->
    <g transform="translate(101.189247 61.488) scale(0.12 -0.12)">
     <defs>
      <path id="DejaVuSans-53" d="M 3425 4513 
L 3425 3897 
Q 3066 4069 2747 4153 
Q 2428 4238 2131 4238 
Q 1616 4238 1336 4038 
Q 1056 3838 1056 3469 
Q 1056 3159 1242 3001 
Q 1428 2844 1947 2747 
L 2328 2669 
Q 3034 2534 3370 2195 
Q 3706 1856 3706 1288 
Q 3706 609 3251 259 
Q 2797 -91 1919 -91 
Q 1588 -91 1214 -16 
Q 841 59 441 206 
L 441 856 
Q 825 641 1194 531 
Q 1563 422 1919 422 
Q 2459 422 2753 634 
Q 3047 847 3047 1241 
Q 3047 1584 2836 1778 
Q 2625 1972 2144 2069 
L 1759 2144 
Q 1053 2284 737 2584 
Q 422 2884 422 3419 
Q 422 4038 858 4394 
Q 1294 4750 2059 4750 
Q 2388 4750 2728 4690 
Q 3069 4631 3425 4513 
z
" transform="scale(0.015625)"/>
      <path id="DejaVuSans-6f" d="M 1959 3097 
Q 1497 3097 1228 2736 
Q 959 2375 959 1747 
Q 959 1119 1226 758 
Q 1494 397 1959 397 
Q 2419 397 2687 759 
Q 2956 1122 2956 1747 
Q 2956 2369 2687 2733 
Q 2419 3097 1959 3097 
z
M 1959 3584 
Q 2709 3584 3137 3096 
Q 3566 2609 3566 1747 
Q 3566 888 3137 398 
Q 2709 -91 1959 -91 
Q 1206 -91 779 398 
Q 353 888 353 1747 
Q 353 2609 779 3096 
Q 1206 3584 1959 3584 
z
" transform="scale(0.015625)"/>
      <path id="DejaVuSans-6c" d="M 603 4863 
L 1178 4863 
L 1178 0 
L 603 0 
L 603 4863 
z
" transform="scale(0.015625)"/>
      <path id="DejaVuSans-76" d="M 191 3500 
L 800 3500 
L 1894 563 
L 2988 3500 
L 3597 3500 
L 2284 0 
L 1503 0 
L 191 3500 
z
" transform="scale(0.015625)"/>
      <path id="DejaVuSans-65" d="M 3597 1894 
L 3597 1613 
L 953 1613 
Q 991 1019 1311 708 
Q 1631 397 2203 397 
Q 2534 397 2845 478 
Q 3156 559 3463 722 
L 3463 178 
Q 3153 47 2828 -22 
Q 2503 -91 2169 -91 
Q 1331 -91 842 396 
Q 353 884 353 1716 
Q 353 2575 817 3079 
Q 1281 3584 2069 3584 
Q 2775 3584 3186 3129 
Q 3597 2675 3597 1894 
z
M 3022 2063 
Q 3016 2534 2758 2815 
Q 2500 3097 2075 3097 
Q 1594 3097 1305 2825 
Q 1016 2553 972 2059 
L 3022 2063 
z
" transform="scale(0.015625)"/>
      <path id="DejaVuSans-20" transform="scale(0.015625)"/>
      <path id="DejaVuSans-72" d="M 2631 2963 
Q 2534 3019 2420 3045 
Q 2306 3072 2169 3072 
Q 1681 3072 1420 2755 
Q 1159 2438 1159 1844 
L 1159 0 
L 581 0 
L 581 3500 
L 1159 3500 
L 1159 2956 
Q 1341 3275 1631 3429 
Q 1922 3584 2338 3584 
Q 2397 3584 2469 3576 
Q 2541 3569 2628 3553 
L 2631 2963 
z
" transform="scale(0.015625)"/>
      <path id="DejaVuSans-61" d="M 2194 1759 
Q 1497 1759 1228 1600 
Q 959 1441 959 1056 
Q 959 750 1161 570 
Q 1363 391 1709 391 
Q 2188 391 2477 730 
Q 2766 1069 2766 1631 
L 2766 1759 
L 2194 1759 
z
M 3341 1997 
L 3341 0 
L 2766 0 
L 2766 531 
Q 2569 213 2275 61 
Q 1981 -91 1556 -91 
Q 1019 -91 701 211 
Q 384 513 384 1019 
Q 384 1609 779 1909 
Q 1175 2209 1959 2209 
L 2766 2209 
L 2766 2266 
Q 2766 2663 2505 2880 
Q 2244 3097 1772 3097 
Q 1472 3097 1187 3025 
Q 903 2953 641 2809 
L 641 3341 
Q 956 3463 1253 3523 
Q 1550 3584 1831 3584 
Q 2591 3584 2966 3190 
Q 3341 2797 3341 1997 
z
" transform="scale(0.015625)"/>
      <path id="DejaVuSans-74" d="M 1172 4494 
L 1172 3500 
L 2356 3500 
L 2356 3053 
L 1172 3053 
L 1172 1153 
Q 1172 725 1289 603 
Q 1406 481 1766 481 
L 2356 481 
L 2356 0 
L 1766 0 
Q 1100 0 847 248 
Q 594 497 594 1153 
L 594 3053 
L 172 3053 
L 172 3500 
L 594 3500 
L 594 4494 
L 1172 4494 
z
" transform="scale(0.015625)"/>
     </defs>
     <use xlink:href="#DejaVuSans-53"/>
     <use xlink:href="#DejaVuSans-6f" transform="translate(63.476562 0)"/>
     <use xlink:href="#DejaVuSans-6c" transform="translate(124.658203 0)"/>
     <use xlink:href="#DejaVuSans-76" transform="translate(152.441406 0)"/>
     <use xlink:href="#DejaVuSans-65" transform="translate(211.621094 0)"/>
     <use xlink:href="#DejaVuSans-20" transform="translate(273.144531 0)"/>
     <use xlink:href="#DejaVuSans-72" transform="translate(304.931641 0)"/>
     <use xlink:href="#DejaVuSans-61" transform="translate(346.044922 0)"/>
     <use xlink:href="#DejaVuSans-74" transform="translate(407.324219 0)"/>
     <use xlink:href="#DejaVuSans-65" transform="translate(446.533203 0)"/>
    </g>
   </g>
   <g id="line2d_14">
    <defs>
     <path id="m584659f3ea" d="M 0 3.5 
C 0.928211 3.5 1.81853 3.131218 2.474874 2.474874 
C 3.131218 1.81853 3.5 0.928211 3.5 0 
C 3.5 -0.928211 3.131218 -1.81853 2.474874 -2.474874 
C 1.81853 -3.131218 0.928211 -3.5 0 -3.5 
C -0.928211 -3.5 -1.81853 -3.131218 -2.474874 -2.474874 
C -3.131218 -1.81853 -3.5 -0.928211 -3.5 0 
C -3.5 0.928211 -3.131218 1.81853 -2.474874 2.474874 
C -1.81853 3.131218 -0.928211 3.5 0 3.5 
z
" style="stroke: #c05640"/>
    </defs>
    <g clip-path="url(#p85f9b73d7c)">
     <use xlink:href="#m584659f3ea" x="88.378653" y="177.088" style="fill: #c05640; stroke: #c05640"/>
    </g>
   </g>
  </g>
  <g id="axes_2">
   <g id="patch_6">
    <path d="M 295.637861 286.688 
L 544.585731 286.688 
L 544.585731 67.488 
L 295.637861 67.488 
z
" style="fill: #ffffff"/>
   </g>
   <g id="line2d_15">
    <path d="M 420.111796 286.688 
L 420.111796 67.488 
" clip-path="url(#p1a5d9e2eb7)" style="fill: none; stroke: #4c566a; stroke-linecap: square"/>
   </g>
   <g id="matplotlib.axis_3">
    <g id="xtick_6">
     <g id="line2d_16">
      <path d="M 307.117427 286.688 
L 307.117427 67.488 
" clip-path="url(#p1a5d9e2eb7)" style="fill: none; stroke: #e7ecf2; stroke-linecap: square"/>
     </g>
     <g id="line2d_17">
      <g>
       <use xlink:href="#m7e66cb3551" x="307.117427" y="286.688" style="stroke: #000000; stroke-width: 0.8"/>
      </g>
     </g>
     <g id="text_8">
      <!-- -100,000 -->
      <g transform="translate(284.636958 301.286438) scale(0.1 -0.1)">
       <defs>
        <path id="DejaVuSans-31" d="M 794 531 
L 1825 531 
L 1825 4091 
L 703 3866 
L 703 4441 
L 1819 4666 
L 2450 4666 
L 2450 531 
L 3481 531 
L 3481 0 
L 794 0 
L 794 531 
z
" transform="scale(0.015625)"/>
        <path id="DejaVuSans-2c" d="M 750 794 
L 1409 794 
L 1409 256 
L 897 -744 
L 494 -744 
L 750 256 
L 750 794 
z
" transform="scale(0.015625)"/>
       </defs>
       <use xlink:href="#DejaVuSans-2d"/>
       <use xlink:href="#DejaVuSans-31" transform="translate(36.083984 0)"/>
       <use xlink:href="#DejaVuSans-30" transform="translate(99.707031 0)"/>
       <use xlink:href="#DejaVuSans-30" transform="translate(163.330078 0)"/>
       <use xlink:href="#DejaVuSans-2c" transform="translate(226.953125 0)"/>
       <use xlink:href="#DejaVuSans-30" transform="translate(258.740234 0)"/>
       <use xlink:href="#DejaVuSans-30" transform="translate(322.363281 0)"/>
       <use xlink:href="#DejaVuSans-30" transform="translate(385.986328 0)"/>
      </g>
     </g>
    </g>
    <g id="xtick_7">
     <g id="line2d_18">
      <path d="M 363.614612 286.688 
L 363.614612 67.488 
" clip-path="url(#p1a5d9e2eb7)" style="fill: none; stroke: #e7ecf2; stroke-linecap: square"/>
     </g>
     <g id="line2d_19">
      <g>
       <use xlink:href="#m7e66cb3551" x="363.614612" y="286.688" style="stroke: #000000; stroke-width: 0.8"/>
      </g>
     </g>
     <g id="text_9">
      <!-- -50,000 -->
      <g transform="translate(344.315393 301.286438) scale(0.1 -0.1)">
       <use xlink:href="#DejaVuSans-2d"/>
       <use xlink:href="#DejaVuSans-35" transform="translate(36.083984 0)"/>
       <use xlink:href="#DejaVuSans-30" transform="translate(99.707031 0)"/>
       <use xlink:href="#DejaVuSans-2c" transform="translate(163.330078 0)"/>
       <use xlink:href="#DejaVuSans-30" transform="translate(195.117188 0)"/>
       <use xlink:href="#DejaVuSans-30" transform="translate(258.740234 0)"/>
       <use xlink:href="#DejaVuSans-30" transform="translate(322.363281 0)"/>
      </g>
     </g>
    </g>
    <g id="xtick_8">
     <g id="line2d_20">
      <path d="M 420.111796 286.688 
L 420.111796 67.488 
" clip-path="url(#p1a5d9e2eb7)" style="fill: none; stroke: #e7ecf2; stroke-linecap: square"/>
     </g>
     <g id="line2d_21">
      <g>
       <use xlink:href="#m7e66cb3551" x="420.111796" y="286.688" style="stroke: #000000; stroke-width: 0.8"/>
      </g>
     </g>
     <g id="text_10">
      <!-- 0 -->
      <g transform="translate(416.930546 301.286438) scale(0.1 -0.1)">
       <use xlink:href="#DejaVuSans-30"/>
      </g>
     </g>
    </g>
    <g id="xtick_9">
     <g id="line2d_22">
      <path d="M 476.608981 286.688 
L 476.608981 67.488 
" clip-path="url(#p1a5d9e2eb7)" style="fill: none; stroke: #e7ecf2; stroke-linecap: square"/>
     </g>
     <g id="line2d_23">
      <g>
       <use xlink:href="#m7e66cb3551" x="476.608981" y="286.688" style="stroke: #000000; stroke-width: 0.8"/>
      </g>
     </g>
     <g id="text_11">
      <!-- 50,000 -->
      <g transform="translate(459.113669 301.286438) scale(0.1 -0.1)">
       <use xlink:href="#DejaVuSans-35"/>
       <use xlink:href="#DejaVuSans-30" transform="translate(63.623047 0)"/>
       <use xlink:href="#DejaVuSans-2c" transform="translate(127.246094 0)"/>
       <use xlink:href="#DejaVuSans-30" transform="translate(159.033203 0)"/>
       <use xlink:href="#DejaVuSans-30" transform="translate(222.65625 0)"/>
       <use xlink:href="#DejaVuSans-30" transform="translate(286.279297 0)"/>
      </g>
     </g>
    </g>
    <g id="xtick_10">
     <g id="line2d_24">
      <path d="M 533.106166 286.688 
L 533.106166 67.488 
" clip-path="url(#p1a5d9e2eb7)" style="fill: none; stroke: #e7ecf2; stroke-linecap: square"/>
     </g>
     <g id="line2d_25">
      <g>
       <use xlink:href="#m7e66cb3551" x="533.106166" y="286.688" style="stroke: #000000; stroke-width: 0.8"/>
      </g>
     </g>
     <g id="text_12">
      <!-- 100,000 -->
      <g transform="translate(512.429604 301.286438) scale(0.1 -0.1)">
       <use xlink:href="#DejaVuSans-31"/>
       <use xlink:href="#DejaVuSans-30" transform="translate(63.623047 0)"/>
       <use xlink:href="#DejaVuSans-30" transform="translate(127.246094 0)"/>
       <use xlink:href="#DejaVuSans-2c" transform="translate(190.869141 0)"/>
       <use xlink:href="#DejaVuSans-30" transform="translate(222.65625 0)"/>
       <use xlink:href="#DejaVuSans-30" transform="translate(286.279297 0)"/>
       <use xlink:href="#DejaVuSans-30" transform="translate(349.902344 0)"/>
      </g>
     </g>
    </g>
   </g>
   <g id="matplotlib.axis_4"/>
   <g id="patch_7">
    <path d="M 420.111796 276.724364 
L 331.95104 276.724364 
L 331.95104 77.451636 
L 420.111796 77.451636 
z
" clip-path="url(#p1a5d9e2eb7)" style="fill: #1e5bff; opacity: 0.18"/>
   </g>
   <g id="patch_8">
    <path d="M 295.637861 286.688 
L 295.637861 67.488 
" style="fill: none; stroke: #d0d7de; stroke-width: 0.8; stroke-linejoin: miter; stroke-linecap: square"/>
   </g>
   <g id="patch_9">
    <path d="M 295.637861 286.688 
L 544.585731 286.688 
" style="fill: none; stroke: #d0d7de; stroke-width: 0.8; stroke-linejoin: miter; stroke-linecap: square"/>
   </g>
   <g id="LineCollection_2">
    <path d="M 311.873592 177.088 
L 349.145397 177.088 
" clip-path="url(#p1a5d9e2eb7)" style="fill: none; stroke: #1e5bff; stroke-width: 2"/>
   </g>
   <g id="line2d_26">
    <defs>
     <path id="m7e6ad15978" d="M 0 5 
L 0 -5 
" style="stroke: #1e5bff"/>
    </defs>
    <g clip-path="url(#p1a5d9e2eb7)">
     <use xlink:href="#m7e6ad15978" x="311.873592" y="177.088" style="fill: #1e5bff; stroke: #1e5bff"/>
    </g>
   </g>
   <g id="line2d_27">
    <g clip-path="url(#p1a5d9e2eb7)">
     <use xlink:href="#m7e6ad15978" x="349.145397" y="177.088" style="fill: #1e5bff; stroke: #1e5bff"/>
    </g>
   </g>
   <g id="text_13">
    <!-- p=0.002 -->
    <g transform="translate(300.616819 92.622438) scale(0.1 -0.1)">
     <use xlink:href="#DejaVuSans-70"/>
     <use xlink:href="#DejaVuSans-3d" transform="translate(63.476562 0)"/>
     <use xlink:href="#DejaVuSans-30" transform="translate(147.265625 0)"/>
     <use xlink:href="#DejaVuSans-2e" transform="translate(210.888672 0)"/>
     <use xlink:href="#DejaVuSans-30" transform="translate(242.675781 0)"/>
     <use xlink:href="#DejaVuSans-30" transform="translate(306.298828 0)"/>
     <use xlink:href="#DejaVuSans-32" transform="translate(369.921875 0)"/>
    </g>
   </g>
   <g id="text_14">
    <!-- Elapsed time (ms) -->
    <g transform="translate(365.520234 61.488) scale(0.12 -0.12)">
     <defs>
      <path id="DejaVuSans-45" d="M 628 4666 
L 3578 4666 
L 3578 4134 
L 1259 4134 
L 1259 2753 
L 3481 2753 
L 3481 2222 
L 1259 2222 
L 1259 531 
L 3634 531 
L 3634 0 
L 628 0 
L 628 4666 
z
" transform="scale(0.015625)"/>
      <path id="DejaVuSans-73" d="M 2834 3397 
L 2834 2853 
Q 2591 2978 2328 3040 
Q 2066 3103 1784 3103 
Q 1356 3103 1142 2972 
Q 928 2841 928 2578 
Q 928 2378 1081 2264 
Q 1234 2150 1697 2047 
L 1894 2003 
Q 2506 1872 2764 1633 
Q 3022 1394 3022 966 
Q 3022 478 2636 193 
Q 2250 -91 1575 -91 
Q 1294 -91 989 -36 
Q 684 19 347 128 
L 347 722 
Q 666 556 975 473 
Q 1284 391 1588 391 
Q 1994 391 2212 530 
Q 2431 669 2431 922 
Q 2431 1156 2273 1281 
Q 2116 1406 1581 1522 
L 1381 1569 
Q 847 1681 609 1914 
Q 372 2147 372 2553 
Q 372 3047 722 3315 
Q 1072 3584 1716 3584 
Q 2034 3584 2315 3537 
Q 2597 3491 2834 3397 
z
" transform="scale(0.015625)"/>
      <path id="DejaVuSans-64" d="M 2906 2969 
L 2906 4863 
L 3481 4863 
L 3481 0 
L 2906 0 
L 2906 525 
Q 2725 213 2448 61 
Q 2172 -91 1784 -91 
Q 1150 -91 751 415 
Q 353 922 353 1747 
Q 353 2572 751 3078 
Q 1150 3584 1784 3584 
Q 2172 3584 2448 3432 
Q 2725 3281 2906 2969 
z
M 947 1747 
Q 947 1113 1208 752 
Q 1469 391 1925 391 
Q 2381 391 2643 752 
Q 2906 1113 2906 1747 
Q 2906 2381 2643 2742 
Q 2381 3103 1925 3103 
Q 1469 3103 1208 2742 
Q 947 2381 947 1747 
z
" transform="scale(0.015625)"/>
      <path id="DejaVuSans-69" d="M 603 3500 
L 1178 3500 
L 1178 0 
L 603 0 
L 603 3500 
z
M 603 4863 
L 1178 4863 
L 1178 4134 
L 603 4134 
L 603 4863 
z
" transform="scale(0.015625)"/>
      <path id="DejaVuSans-6d" d="M 3328 2828 
Q 3544 3216 3844 3400 
Q 4144 3584 4550 3584 
Q 5097 3584 5394 3201 
Q 5691 2819 5691 2113 
L 5691 0 
L 5113 0 
L 5113 2094 
Q 5113 2597 4934 2840 
Q 4756 3084 4391 3084 
Q 3944 3084 3684 2787 
Q 3425 2491 3425 1978 
L 3425 0 
L 2847 0 
L 2847 2094 
Q 2847 2600 2669 2842 
Q 2491 3084 2119 3084 
Q 1678 3084 1418 2786 
Q 1159 2488 1159 1978 
L 1159 0 
L 581 0 
L 581 3500 
L 1159 3500 
L 1159 2956 
Q 1356 3278 1631 3431 
Q 1906 3584 2284 3584 
Q 2666 3584 2933 3390 
Q 3200 3197 3328 2828 
z
" transform="scale(0.015625)"/>
      <path id="DejaVuSans-28" d="M 1984 4856 
Q 1566 4138 1362 3434 
Q 1159 2731 1159 2009 
Q 1159 1288 1364 580 
Q 1569 -128 1984 -844 
L 1484 -844 
Q 1016 -109 783 600 
Q 550 1309 550 2009 
Q 550 2706 781 3412 
Q 1013 4119 1484 4856 
L 1984 4856 
z
" transform="scale(0.015625)"/>
      <path id="DejaVuSans-29" d="M 513 4856 
L 1013 4856 
Q 1481 4119 1714 3412 
Q 1947 2706 1947 2009 
Q 1947 1309 1714 600 
Q 1481 -109 1013 -844 
L 513 -844 
Q 928 -128 1133 580 
Q 1338 1288 1338 2009 
Q 1338 2731 1133 3434 
Q 928 4138 513 4856 
z
" transform="scale(0.015625)"/>
     </defs>
     <use xlink:href="#DejaVuSans-45"/>
     <use xlink:href="#DejaVuSans-6c" transform="translate(63.183594 0)"/>
     <use xlink:href="#DejaVuSans-61" transform="translate(90.966797 0)"/>
     <use xlink:href="#DejaVuSans-70" transform="translate(152.246094 0)"/>
     <use xlink:href="#DejaVuSans-73" transform="translate(215.722656 0)"/>
     <use xlink:href="#DejaVuSans-65" transform="translate(267.822266 0)"/>
     <use xlink:href="#DejaVuSans-64" transform="translate(329.345703 0)"/>
     <use xlink:href="#DejaVuSans-20" transform="translate(392.822266 0)"/>
     <use xlink:href="#DejaVuSans-74" transform="translate(424.609375 0)"/>
     <use xlink:href="#DejaVuSans-69" transform="translate(463.818359 0)"/>
     <use xlink:href="#DejaVuSans-6d" transform="translate(491.601562 0)"/>
     <use xlink:href="#DejaVuSans-65" transform="translate(589.013672 0)"/>
     <use xlink:href="#DejaVuSans-20" transform="translate(650.537109 0)"/>
     <use xlink:href="#DejaVuSans-28" transform="translate(682.324219 0)"/>
     <use xlink:href="#DejaVuSans-6d" transform="translate(721.337891 0)"/>
     <use xlink:href="#DejaVuSans-73" transform="translate(818.75 0)"/>
     <use xlink:href="#DejaVuSans-29" transform="translate(870.849609 0)"/>
    </g>
   </g>
   <g id="line2d_28">
    <defs>
     <path id="m60e6641698" d="M 0 3.5 
C 0.928211 3.5 1.81853 3.131218 2.474874 2.474874 
C 3.131218 1.81853 3.5 0.928211 3.5 0 
C 3.5 -0.928211 3.131218 -1.81853 2.474874 -2.474874 
C 1.81853 -3.131218 0.928211 -3.5 0 -3.5 
C -0.928211 -3.5 -1.81853 -3.131218 -2.474874 -2.474874 
C -3.131218 -1.81853 -3.5 -0.928211 -3.5 0 
C -3.5 0.928211 -3.131218 1.81853 -2.474874 2.474874 
C -1.81853 3.131218 -0.928211 3.5 0 3.5 
z
" style="stroke: #1e5bff"/>
    </defs>
    <g clip-path="url(#p1a5d9e2eb7)">
     <use xlink:href="#m60e6641698" x="331.95104" y="177.088" style="fill: #1e5bff; stroke: #1e5bff"/>
    </g>
   </g>
  </g>
  <g id="axes_3">
   <g id="patch_10">
    <path d="M 584.075723 286.688 
L 833.023593 286.688 
L 833.023593 67.488 
L 584.075723 67.488 
z
" style="fill: #ffffff"/>
   </g>
   <g id="line2d_29">
    <path d="M 708.549658 286.688 
L 708.549658 67.488 
" clip-path="url(#p9bb407cf68)" style="fill: none; stroke: #4c566a; stroke-linecap: square"/>
   </g>
   <g id="matplotlib.axis_5">
    <g id="xtick_11">
     <g id="line2d_30">
      <path d="M 591.734222 286.688 
L 591.734222 67.488 
" clip-path="url(#p9bb407cf68)" style="fill: none; stroke: #e7ecf2; stroke-linecap: square"/>
     </g>
     <g id="line2d_31">
      <g>
       <use xlink:href="#m7e66cb3551" x="591.734222" y="286.688" style="stroke: #000000; stroke-width: 0.8"/>
      </g>
     </g>
     <g id="text_15">
      <!-- -400,000 -->
      <g transform="translate(569.253753 301.286438) scale(0.1 -0.1)">
       <use xlink:href="#DejaVuSans-2d"/>
       <use xlink:href="#DejaVuSans-34" transform="translate(36.083984 0)"/>
       <use xlink:href="#DejaVuSans-30" transform="translate(99.707031 0)"/>
       <use xlink:href="#DejaVuSans-30" transform="translate(163.330078 0)"/>
       <use xlink:href="#DejaVuSans-2c" transform="translate(226.953125 0)"/>
       <use xlink:href="#DejaVuSans-30" transform="translate(258.740234 0)"/>
       <use xlink:href="#DejaVuSans-30" transform="translate(322.363281 0)"/>
       <use xlink:href="#DejaVuSans-30" transform="translate(385.986328 0)"/>
      </g>
     </g>
    </g>
    <g id="xtick_12">
     <g id="line2d_32">
      <path d="M 650.14194 286.688 
L 650.14194 67.488 
" clip-path="url(#p9bb407cf68)" style="fill: none; stroke: #e7ecf2; stroke-linecap: square"/>
     </g>
     <g id="line2d_33">
      <g>
       <use xlink:href="#m7e66cb3551" x="650.14194" y="286.688" style="stroke: #000000; stroke-width: 0.8"/>
      </g>
     </g>
     <g id="text_16">
      <!-- -200,000 -->
      <g transform="translate(627.661471 301.286438) scale(0.1 -0.1)">
       <use xlink:href="#DejaVuSans-2d"/>
       <use xlink:href="#DejaVuSans-32" transform="translate(36.083984 0)"/>
       <use xlink:href="#DejaVuSans-30" transform="translate(99.707031 0)"/>
       <use xlink:href="#DejaVuSans-30" transform="translate(163.330078 0)"/>
       <use xlink:href="#DejaVuSans-2c" transform="translate(226.953125 0)"/>
       <use xlink:href="#DejaVuSans-30" transform="translate(258.740234 0)"/>
       <use xlink:href="#DejaVuSans-30" transform="translate(322.363281 0)"/>
       <use xlink:href="#DejaVuSans-30" transform="translate(385.986328 0)"/>
      </g>
     </g>
    </g>
    <g id="xtick_13">
     <g id="line2d_34">
      <path d="M 708.549658 286.688 
L 708.549658 67.488 
" clip-path="url(#p9bb407cf68)" style="fill: none; stroke: #e7ecf2; stroke-linecap: square"/>
     </g>
     <g id="line2d_35">
      <g>
       <use xlink:href="#m7e66cb3551" x="708.549658" y="286.688" style="stroke: #000000; stroke-width: 0.8"/>
      </g>
     </g>
     <g id="text_17">
      <!-- 0 -->
      <g transform="translate(705.368408 301.286438) scale(0.1 -0.1)">
       <use xlink:href="#DejaVuSans-30"/>
      </g>
     </g>
    </g>
    <g id="xtick_14">
     <g id="line2d_36">
      <path d="M 766.957376 286.688 
L 766.957376 67.488 
" clip-path="url(#p9bb407cf68)" style="fill: none; stroke: #e7ecf2; stroke-linecap: square"/>
     </g>
     <g id="line2d_37">
      <g>
       <use xlink:href="#m7e66cb3551" x="766.957376" y="286.688" style="stroke: #000000; stroke-width: 0.8"/>
      </g>
     </g>
     <g id="text_18">
      <!-- 200,000 -->
      <g transform="translate(746.280813 301.286438) scale(0.1 -0.1)">
       <use xlink:href="#DejaVuSans-32"/>
       <use xlink:href="#DejaVuSans-30" transform="translate(63.623047 0)"/>
       <use xlink:href="#DejaVuSans-30" transform="translate(127.246094 0)"/>
       <use xlink:href="#DejaVuSans-2c" transform="translate(190.869141 0)"/>
       <use xlink:href="#DejaVuSans-30" transform="translate(222.65625 0)"/>
       <use xlink:href="#DejaVuSans-30" transform="translate(286.279297 0)"/>
       <use xlink:href="#DejaVuSans-30" transform="translate(349.902344 0)"/>
      </g>
     </g>
    </g>
    <g id="xtick_15">
     <g id="line2d_38">
      <path d="M 825.365094 286.688 
L 825.365094 67.488 
" clip-path="url(#p9bb407cf68)" style="fill: none; stroke: #e7ecf2; stroke-linecap: square"/>
     </g>
     <g id="line2d_39">
      <g>
       <use xlink:href="#m7e66cb3551" x="825.365094" y="286.688" style="stroke: #000000; stroke-width: 0.8"/>
      </g>
     </g>
     <g id="text_19">
      <!-- 400,000 -->
      <g transform="translate(804.688531 301.286438) scale(0.1 -0.1)">
       <use xlink:href="#DejaVuSans-34"/>
       <use xlink:href="#DejaVuSans-30" transform="translate(63.623047 0)"/>
       <use xlink:href="#DejaVuSans-30" transform="translate(127.246094 0)"/>
       <use xlink:href="#DejaVuSans-2c" transform="translate(190.869141 0)"/>
       <use xlink:href="#DejaVuSans-30" transform="translate(222.65625 0)"/>
       <use xlink:href="#DejaVuSans-30" transform="translate(286.279297 0)"/>
       <use xlink:href="#DejaVuSans-30" transform="translate(349.902344 0)"/>
      </g>
     </g>
    </g>
   </g>
   <g id="matplotlib.axis_6"/>
   <g id="patch_11">
    <path d="M 708.549658 276.724364 
L 617.892293 276.724364 
L 617.892293 77.451636 
L 708.549658 77.451636 
z
" clip-path="url(#p9bb407cf68)" style="fill: #1e5bff; opacity: 0.18"/>
   </g>
   <g id="patch_12">
    <path d="M 584.075723 286.688 
L 584.075723 67.488 
" style="fill: none; stroke: #d0d7de; stroke-width: 0.8; stroke-linejoin: miter; stroke-linecap: square"/>
   </g>
   <g id="patch_13">
    <path d="M 584.075723 286.688 
L 833.023593 286.688 
" style="fill: none; stroke: #d0d7de; stroke-width: 0.8; stroke-linejoin: miter; stroke-linecap: square"/>
   </g>
   <g id="LineCollection_3">
    <path d="M 600.311454 177.088 
L 632.767887 177.088 
" clip-path="url(#p9bb407cf68)" style="fill: none; stroke: #1e5bff; stroke-width: 2"/>
   </g>
   <g id="line2d_40">
    <g clip-path="url(#p9bb407cf68)">
     <use xlink:href="#m7e6ad15978" x="600.311454" y="177.088" style="fill: #1e5bff; stroke: #1e5bff"/>
    </g>
   </g>
   <g id="line2d_41">
    <g clip-path="url(#p9bb407cf68)">
     <use xlink:href="#m7e6ad15978" x="632.767887" y="177.088" style="fill: #1e5bff; stroke: #1e5bff"/>
    </g>
   </g>
   <g id="text_20">
    <!-- p=0.002 -->
    <g transform="translate(589.05468 92.622438) scale(0.1 -0.1)">
     <use xlink:href="#DejaVuSans-70"/>
     <use xlink:href="#DejaVuSans-3d" transform="translate(63.476562 0)"/>
     <use xlink:href="#DejaVuSans-30" transform="translate(147.265625 0)"/>
     <use xlink:href="#DejaVuSans-2e" transform="translate(210.888672 0)"/>
     <use xlink:href="#DejaVuSans-30" transform="translate(242.675781 0)"/>
     <use xlink:href="#DejaVuSans-30" transform="translate(306.298828 0)"/>
     <use xlink:href="#DejaVuSans-32" transform="translate(369.921875 0)"/>
    </g>
   </g>
   <g id="text_21">
    <!-- Total tokens -->
    <g transform="translate(672.730595 61.488) scale(0.12 -0.12)">
     <defs>
      <path id="DejaVuSans-54" d="M -19 4666 
L 3928 4666 
L 3928 4134 
L 2272 4134 
L 2272 0 
L 1638 0 
L 1638 4134 
L -19 4134 
L -19 4666 
z
" transform="scale(0.015625)"/>
      <path id="DejaVuSans-6b" d="M 581 4863 
L 1159 4863 
L 1159 1991 
L 2875 3500 
L 3609 3500 
L 1753 1863 
L 3688 0 
L 2938 0 
L 1159 1709 
L 1159 0 
L 581 0 
L 581 4863 
z
" transform="scale(0.015625)"/>
      <path id="DejaVuSans-6e" d="M 3513 2113 
L 3513 0 
L 2938 0 
L 2938 2094 
Q 2938 2591 2744 2837 
Q 2550 3084 2163 3084 
Q 1697 3084 1428 2787 
Q 1159 2491 1159 1978 
L 1159 0 
L 581 0 
L 581 3500 
L 1159 3500 
L 1159 2956 
Q 1366 3272 1645 3428 
Q 1925 3584 2291 3584 
Q 2894 3584 3203 3211 
Q 3513 2838 3513 2113 
z
" transform="scale(0.015625)"/>
     </defs>
     <use xlink:href="#DejaVuSans-54"/>
     <use xlink:href="#DejaVuSans-6f" transform="translate(44.083984 0)"/>
     <use xlink:href="#DejaVuSans-74" transform="translate(105.265625 0)"/>
     <use xlink:href="#DejaVuSans-61" transform="translate(144.474609 0)"/>
     <use xlink:href="#DejaVuSans-6c" transform="translate(205.753906 0)"/>
     <use xlink:href="#DejaVuSans-20" transform="translate(233.537109 0)"/>
     <use xlink:href="#DejaVuSans-74" transform="translate(265.324219 0)"/>
     <use xlink:href="#DejaVuSans-6f" transform="translate(304.533203 0)"/>
     <use xlink:href="#DejaVuSans-6b" transform="translate(365.714844 0)"/>
     <use xlink:href="#DejaVuSans-65" transform="translate(420 0)"/>
     <use xlink:href="#DejaVuSans-6e" transform="translate(481.523438 0)"/>
     <use xlink:href="#DejaVuSans-73" transform="translate(544.902344 0)"/>
    </g>
   </g>
   <g id="line2d_42">
    <g clip-path="url(#p9bb407cf68)">
     <use xlink:href="#m60e6641698" x="617.892293" y="177.088" style="fill: #1e5bff; stroke: #1e5bff"/>
    </g>
   </g>
  </g>
  <g id="text_22">
   <!-- Rainbow vs Codex 5.4 High -->
   <g transform="translate(317.97 19.3575) scale(0.16 -0.16)">
    <defs>
     <path id="DejaVuSans-52" d="M 2841 2188 
Q 3044 2119 3236 1894 
Q 3428 1669 3622 1275 
L 4263 0 
L 3584 0 
L 2988 1197 
Q 2756 1666 2539 1819 
Q 2322 1972 1947 1972 
L 1259 1972 
L 1259 0 
L 628 0 
L 628 4666 
L 2053 4666 
Q 2853 4666 3247 4331 
Q 3641 3997 3641 3322 
Q 3641 2881 3436 2590 
Q 3231 2300 2841 2188 
z
M 1259 4147 
L 1259 2491 
L 2053 2491 
Q 2509 2491 2742 2702 
Q 2975 2913 2975 3322 
Q 2975 3731 2742 3939 
Q 2509 4147 2053 4147 
L 1259 4147 
z
" transform="scale(0.015625)"/>
     <path id="DejaVuSans-62" d="M 3116 1747 
Q 3116 2381 2855 2742 
Q 2594 3103 2138 3103 
Q 1681 3103 1420 2742 
Q 1159 2381 1159 1747 
Q 1159 1113 1420 752 
Q 1681 391 2138 391 
Q 2594 391 2855 752 
Q 3116 1113 3116 1747 
z
M 1159 2969 
Q 1341 3281 1617 3432 
Q 1894 3584 2278 3584 
Q 2916 3584 3314 3078 
Q 3713 2572 3713 1747 
Q 3713 922 3314 415 
Q 2916 -91 2278 -91 
Q 1894 -91 1617 61 
Q 1341 213 1159 525 
L 1159 0 
L 581 0 
L 581 4863 
L 1159 4863 
L 1159 2969 
z
" transform="scale(0.015625)"/>
     <path id="DejaVuSans-77" d="M 269 3500 
L 844 3500 
L 1563 769 
L 2278 3500 
L 2956 3500 
L 3675 769 
L 4391 3500 
L 4966 3500 
L 4050 0 
L 3372 0 
L 2619 2869 
L 1863 0 
L 1184 0 
L 269 3500 
z
" transform="scale(0.015625)"/>
     <path id="DejaVuSans-43" d="M 4122 4306 
L 4122 3641 
Q 3803 3938 3442 4084 
Q 3081 4231 2675 4231 
Q 1875 4231 1450 3742 
Q 1025 3253 1025 2328 
Q 1025 1406 1450 917 
Q 1875 428 2675 428 
Q 3081 428 3442 575 
Q 3803 722 4122 1019 
L 4122 359 
Q 3791 134 3420 21 
Q 3050 -91 2638 -91 
Q 1578 -91 968 557 
Q 359 1206 359 2328 
Q 359 3453 968 4101 
Q 1578 4750 2638 4750 
Q 3056 4750 3426 4639 
Q 3797 4528 4122 4306 
z
" transform="scale(0.015625)"/>
     <path id="DejaVuSans-78" d="M 3513 3500 
L 2247 1797 
L 3578 0 
L 2900 0 
L 1881 1375 
L 863 0 
L 184 0 
L 1544 1831 
L 300 3500 
L 978 3500 
L 1906 2253 
L 2834 3500 
L 3513 3500 
z
" transform="scale(0.015625)"/>
     <path id="DejaVuSans-48" d="M 628 4666 
L 1259 4666 
L 1259 2753 
L 3553 2753 
L 3553 4666 
L 4184 4666 
L 4184 0 
L 3553 0 
L 3553 2222 
L 1259 2222 
L 1259 0 
L 628 0 
L 628 4666 
z
" transform="scale(0.015625)"/>
     <path id="DejaVuSans-67" d="M 2906 1791 
Q 2906 2416 2648 2759 
Q 2391 3103 1925 3103 
Q 1463 3103 1205 2759 
Q 947 2416 947 1791 
Q 947 1169 1205 825 
Q 1463 481 1925 481 
Q 2391 481 2648 825 
Q 2906 1169 2906 1791 
z
M 3481 434 
Q 3481 -459 3084 -895 
Q 2688 -1331 1869 -1331 
Q 1566 -1331 1297 -1286 
Q 1028 -1241 775 -1147 
L 775 -588 
Q 1028 -725 1275 -790 
Q 1522 -856 1778 -856 
Q 2344 -856 2625 -561 
Q 2906 -266 2906 331 
L 2906 616 
Q 2728 306 2450 153 
Q 2172 0 1784 0 
Q 1141 0 747 490 
Q 353 981 353 1791 
Q 353 2603 747 3093 
Q 1141 3584 1784 3584 
Q 2172 3584 2450 3431 
Q 2728 3278 2906 2969 
L 2906 3500 
L 3481 3500 
L 3481 434 
z
" transform="scale(0.015625)"/>
     <path id="DejaVuSans-68" d="M 3513 2113 
L 3513 0 
L 2938 0 
L 2938 2094 
Q 2938 2591 2744 2837 
Q 2550 3084 2163 3084 
Q 1697 3084 1428 2787 
Q 1159 2491 1159 1978 
L 1159 0 
L 581 0 
L 581 4863 
L 1159 4863 
L 1159 2956 
Q 1366 3272 1645 3428 
Q 1925 3584 2291 3584 
Q 2894 3584 3203 3211 
Q 3513 2838 3513 2113 
z
" transform="scale(0.015625)"/>
    </defs>
    <use xlink:href="#DejaVuSans-52"/>
    <use xlink:href="#DejaVuSans-61" transform="translate(67.232422 0)"/>
    <use xlink:href="#DejaVuSans-69" transform="translate(128.511719 0)"/>
    <use xlink:href="#DejaVuSans-6e" transform="translate(156.294922 0)"/>
    <use xlink:href="#DejaVuSans-62" transform="translate(219.673828 0)"/>
    <use xlink:href="#DejaVuSans-6f" transform="translate(283.150391 0)"/>
    <use xlink:href="#DejaVuSans-77" transform="translate(344.332031 0)"/>
    <use xlink:href="#DejaVuSans-20" transform="translate(426.119141 0)"/>
    <use xlink:href="#DejaVuSans-76" transform="translate(457.90625 0)"/>
    <use xlink:href="#DejaVuSans-73" transform="translate(517.085938 0)"/>
    <use xlink:href="#DejaVuSans-20" transform="translate(569.185547 0)"/>
    <use xlink:href="#DejaVuSans-43" transform="translate(600.972656 0)"/>
    <use xlink:href="#DejaVuSans-6f" transform="translate(670.796875 0)"/>
    <use xlink:href="#DejaVuSans-64" transform="translate(731.978516 0)"/>
    <use xlink:href="#DejaVuSans-65" transform="translate(795.455078 0)"/>
    <use xlink:href="#DejaVuSans-78" transform="translate(855.228516 0)"/>
    <use xlink:href="#DejaVuSans-20" transform="translate(914.408203 0)"/>
    <use xlink:href="#DejaVuSans-35" transform="translate(946.195312 0)"/>
    <use xlink:href="#DejaVuSans-2e" transform="translate(1009.818359 0)"/>
    <use xlink:href="#DejaVuSans-34" transform="translate(1041.605469 0)"/>
    <use xlink:href="#DejaVuSans-20" transform="translate(1105.228516 0)"/>
    <use xlink:href="#DejaVuSans-48" transform="translate(1137.015625 0)"/>
    <use xlink:href="#DejaVuSans-69" transform="translate(1212.210938 0)"/>
    <use xlink:href="#DejaVuSans-67" transform="translate(1239.994141 0)"/>
    <use xlink:href="#DejaVuSans-68" transform="translate(1303.470703 0)"/>
   </g>
  </g>
 </g>
 <defs>
  <clipPath id="p85f9b73d7c">
   <rect x="7.2" y="67.488" width="248.94787" height="219.2"/>
  </clipPath>
  <clipPath id="p1a5d9e2eb7">
   <rect x="295.637861" y="67.488" width="248.94787" height="219.2"/>
  </clipPath>
  <clipPath id="p9bb407cf68">
   <rect x="584.075723" y="67.488" width="248.94787" height="219.2"/>
  </clipPath>
 </defs>
</svg>
